  0
SECTION
  2
HEADER
  9
$ACADVER
  1
AC1018
  9
$ACADMAINTVER
 70
0
  9
$DWGCODEPAGE
  3
ANSI_1252
  9
$LASTSAVEDBY
  1
ezdxf
  9
$INSBASE
 10
0.0
 20
0.0
 30
0.0
  9
$EXTMIN
 10
1e+20
 20
1e+20
 30
1e+20
  9
$EXTMAX
 10
-1e+20
 20
-1e+20
 30
-1e+20
  9
$LIMMIN
 10
0.0
 20
0.0
  9
$LIMMAX
 10
420.0
 20
297.0
  9
$ORTHOMODE
 70
0
  9
$REGENMODE
 70
1
  9
$FILLMODE
 70
1
  9
$QTEXTMODE
 70
0
  9
$MIRRTEXT
 70
1
  9
$LTSCALE
 40
1.0
  9
$ATTMODE
 70
1
  9
$TEXTSIZE
 40
2.5
  9
$TRACEWID
 40
1.0
  9
$TEXTSTYLE
  7
Standard
  9
$CLAYER
  8
0
  9
$CELTYPE
  6
ByLayer
  9
$CECOLOR
 62
256
  9
$CELTSCALE
 40
1.0
  9
$DISPSILH
 70
0
  9
$DIMSCALE
 40
1.0
  9
$DIMASZ
 40
2.5
  9
$DIMEXO
 40
0.625
  9
$DIMDLI
 40
3.75
  9
$DIMRND
 40
0.0
  9
$DIMDLE
 40
0.0
  9
$DIMEXE
 40
1.25
  9
$DIMTP
 40
0.0
  9
$DIMTM
 40
0.0
  9
$DIMTXT
 40
2.5
  9
$DIMCEN
 40
2.5
  9
$DIMTSZ
 40
0.0
  9
$DIMTOL
 70
0
  9
$DIMLIM
 70
0
  9
$DIMTIH
 70
0
  9
$DIMTOH
 70
0
  9
$DIMSE1
 70
0
  9
$DIMSE2
 70
0
  9
$DIMTAD
 70
1
  9
$DIMZIN
 70
8
  9
$DIMBLK
  1

  9
$DIMASO
 70
1
  9
$DIMSHO
 70
1
  9
$DIMPOST
  1

  9
$DIMAPOST
  1

  9
$DIMALT
 70
0
  9
$DIMALTD
 70
3
  9
$DIMALTF
 40
0.03937007874
  9
$DIMLFAC
 40
1.0
  9
$DIMTOFL
 70
1
  9
$DIMTVP
 40
0.0
  9
$DIMTIX
 70
0
  9
$DIMSOXD
 70
0
  9
$DIMSAH
 70
0
  9
$DIMBLK1
  1

  9
$DIMBLK2
  1

  9
$DIMSTYLE
  2
ISO-25
  9
$DIMCLRD
 70
0
  9
$DIMCLRE
 70
0
  9
$DIMCLRT
 70
0
  9
$DIMTFAC
 40
1.0
  9
$DIMGAP
 40
0.625
  9
$DIMJUST
 70
0
  9
$DIMSD1
 70
0
  9
$DIMSD2
 70
0
  9
$DIMTOLJ
 70
0
  9
$DIMTZIN
 70
8
  9
$DIMALTZ
 70
0
  9
$DIMALTTZ
 70
0
  9
$DIMUPT
 70
0
  9
$DIMDEC
 70
2
  9
$DIMTDEC
 70
2
  9
$DIMALTU
 70
2
  9
$DIMALTTD
 70
3
  9
$DIMTXSTY
  7
Standard
  9
$DIMAUNIT
 70
0
  9
$DIMADEC
 70
0
  9
$DIMALTRND
 40
0.0
  9
$DIMAZIN
 70
0
  9
$DIMDSEP
 70
44
  9
$DIMATFIT
 70
3
  9
$DIMFRAC
 70
0
  9
$DIMLDRBLK
  1

  9
$DIMLUNIT
 70
2
  9
$DIMLWD
 70
-2
  9
$DIMLWE
 70
-2
  9
$DIMTMOVE
 70
0
  9
$LUNITS
 70
2
  9
$LUPREC
 70
4
  9
$SKETCHINC
 40
1.0
  9
$FILLETRAD
 40
10.0
  9
$AUNITS
 70
0
  9
$AUPREC
 70
2
  9
$MENU
  1
.
  9
$ELEVATION
 40
0.0
  9
$PELEVATION
 40
0.0
  9
$THICKNESS
 40
0.0
  9
$LIMCHECK
 70
0
  9
$CHAMFERA
 40
0.0
  9
$CHAMFERB
 40
0.0
  9
$CHAMFERC
 40
0.0
  9
$CHAMFERD
 40
0.0
  9
$SKPOLY
 70
0
  9
$TDCREATE
 40
2461322.931365741
  9
$TDUCREATE
 40
2458532.153996898
  9
$TDUPDATE
 40
2461322.931365741
  9
$TDUUPDATE
 40
2458532.1544311
  9
$TDINDWG
 40
0.0
  9
$TDUSRTIMER
 40
0.0
  9
$USRTIMER
 70
1
  9
$ANGBASE
 50
0.0
  9
$ANGDIR
 70
0
  9
$PDMODE
 70
0
  9
$PDSIZE
 40
0.0
  9
$PLINEWID
 40
0.0
  9
$SPLFRAME
 70
0
  9
$SPLINETYPE
 70
6
  9
$SPLINESEGS
 70
8
  9
$HANDSEED
  5
51
  9
$SURFTAB1
 70
6
  9
$SURFTAB2
 70
6
  9
$SURFTYPE
 70
6
  9
$SURFU
 70
6
  9
$SURFV
 70
6
  9
$UCSBASE
  2

  9
$UCSNAME
  2

  9
$UCSORG
 10
0.0
 20
0.0
 30
0.0
  9
$UCSXDIR
 10
1.0
 20
0.0
 30
0.0
  9
$UCSYDIR
 10
0.0
 20
1.0
 30
0.0
  9
$UCSORTHOREF
  2

  9
$UCSORTHOVIEW
 70
0
  9
$UCSORGTOP
 10
0.0
 20
0.0
 30
0.0
  9
$UCSORGBOTTOM
 10
0.0
 20
0.0
 30
0.0
  9
$UCSORGLEFT
 10
0.0
 20
0.0
 30
0.0
  9
$UCSORGRIGHT
 10
0.0
 20
0.0
 30
0.0
  9
$UCSORGFRONT
 10
0.0
 20
0.0
 30
0.0
  9
$UCSORGBACK
 10
0.0
 20
0.0
 30
0.0
  9
$PUCSBASE
  2

  9
$PUCSNAME
  2

  9
$PUCSORG
 10
0.0
 20
0.0
 30
0.0
  9
$PUCSXDIR
 10
1.0
 20
0.0
 30
0.0
  9
$PUCSYDIR
 10
0.0
 20
1.0
 30
0.0
  9
$PUCSORTHOREF
  2

  9
$PUCSORTHOVIEW
 70
0
  9
$PUCSORGTOP
 10
0.0
 20
0.0
 30
0.0
  9
$PUCSORGBOTTOM
 10
0.0
 20
0.0
 30
0.0
  9
$PUCSORGLEFT
 10
0.0
 20
0.0
 30
0.0
  9
$PUCSORGRIGHT
 10
0.0
 20
0.0
 30
0.0
  9
$PUCSORGFRONT
 10
0.0
 20
0.0
 30
0.0
  9
$PUCSORGBACK
 10
0.0
 20
0.0
 30
0.0
  9
$USERI1
 70
0
  9
$USERI2
 70
0
  9
$USERI3
 70
0
  9
$USERI4
 70
0
  9
$USERI5
 70
0
  9
$USERR1
 40
0.0
  9
$USERR2
 40
0.0
  9
$USERR3
 40
0.0
  9
$USERR4
 40
0.0
  9
$USERR5
 40
0.0
  9
$WORLDVIEW
 70
1
  9
$SHADEDGE
 70
3
  9
$SHADEDIF
 70
70
  9
$TILEMODE
 70
1
  9
$MAXACTVP
 70
64
  9
$PINSBASE
 10
0.0
 20
0.0
 30
0.0
  9
$PLIMCHECK
 70
0
  9
$PEXTMIN
 10
1e+20
 20
1e+20
 30
1e+20
  9
$PEXTMAX
 10
-1e+20
 20
-1e+20
 30
-1e+20
  9
$PLIMMIN
 10
0.0
 20
0.0
  9
$PLIMMAX
 10
420.0
 20
297.0
  9
$UNITMODE
 70
0
  9
$VISRETAIN
 70
1
  9
$PLINEGEN
 70
0
  9
$PSLTSCALE
 70
1
  9
$TREEDEPTH
 70
3020
  9
$CMLSTYLE
  2
Standard
  9
$CMLJUST
 70
0
  9
$CMLSCALE
 40
20.0
  9
$PROXYGRAPHICS
 70
1
  9
$MEASUREMENT
 70
1
  9
$CELWEIGHT
370
-1
  9
$ENDCAPS
280
0
  9
$JOINSTYLE
280
0
  9
$LWDISPLAY
290
0
  9
$INSUNITS
 70
4
  9
$HYPERLINKBASE
  1

  9
$STYLESHEET
  1

  9
$XEDIT
290
1
  9
$CEPSNTYPE
380
0
  9
$PSTYLEMODE
290
1
  9
$FINGERPRINTGUID
  2
{B2F1D6B7-627E-4B48-B315-E2265DFFDD62}
  9
$VERSIONGUID
  2
{6915F0DA-DC0F-4018-B09D-D7C1C6936772}
  9
$EXTNAMES
290
1
  9
$PSVPSCALE
 40
0.0
  9
$OLESTARTUP
290
0
  9
$SORTENTS
280
127
  9
$INDEXCTL
280
0
  9
$HIDETEXT
280
1
  9
$XCLIPFRAME
290
1
  9
$HALOGAP
280
0
  9
$OBSCOLOR
 70
257
  9
$OBSLTYPE
280
0
  9
$INTERSECTIONDISPLAY
280
0
  9
$INTERSECTIONCOLOR
 70
257
  9
$DIMASSOC
280
2
  9
$PROJECTNAME
  1

  0
ENDSEC
  0
SECTION
  2
CLASSES
  0
CLASS
  1
ACDBDICTIONARYWDFLT
  2
AcDbDictionaryWithDefault
  3
ObjectDBX Classes
 90
0
 91
0
280
0
281
0
  0
CLASS
  1
SUN
  2
AcDbSun
  3
SCENEOE
 90
1153
 91
0
280
0
281
0
  0
CLASS
  1
VISUALSTYLE
  2
AcDbVisualStyle
  3
ObjectDBX Classes
 90
4095
 91
0
280
0
281
0
  0
CLASS
  1
MATERIAL
  2
AcDbMaterial
  3
ObjectDBX Classes
 90
1153
 91
0
280
0
281
0
  0
CLASS
  1
SCALE
  2
AcDbScale
  3
ObjectDBX Classes
 90
1153
 91
0
280
0
281
0
  0
CLASS
  1
TABLESTYLE
  2
AcDbTableStyle
  3
ObjectDBX Classes
 90
4095
 91
0
280
0
281
0
  0
CLASS
  1
MLEADERSTYLE
  2
AcDbMLeaderStyle
  3
ACDB_MLEADERSTYLE_CLASS
 90
4095
 91
0
280
0
281
0
  0
CLASS
  1
DICTIONARYVAR
  2
AcDbDictionaryVar
  3
ObjectDBX Classes
 90
0
 91
0
280
0
281
0
  0
CLASS
  1
CELLSTYLEMAP
  2
AcDbCellStyleMap
  3
ObjectDBX Classes
 90
1152
 91
0
280
0
281
0
  0
CLASS
  1
MENTALRAYRENDERSETTINGS
  2
AcDbMentalRayRenderSettings
  3
SCENEOE
 90
1024
 91
0
280
0
281
0
  0
CLASS
  1
ACDBDETAILVIEWSTYLE
  2
AcDbDetailViewStyle
  3
ObjectDBX Classes
 90
1025
 91
0
280
0
281
0
  0
CLASS
  1
ACDBSECTIONVIEWSTYLE
  2
AcDbSectionViewStyle
  3
ObjectDBX Classes
 90
1025
 91
0
280
0
281
0
  0
CLASS
  1
RASTERVARIABLES
  2
AcDbRasterVariables
  3
ISM
 90
0
 91
0
280
0
281
0
  0
CLASS
  1
ACDBPLACEHOLDER
  2
AcDbPlaceHolder
  3
ObjectDBX Classes
 90
0
 91
0
280
0
281
0
  0
CLASS
  1
LAYOUT
  2
AcDbLayout
  3
ObjectDBX Classes
 90
0
 91
0
280
0
281
0
  0
ENDSEC
  0
SECTION
  2
TABLES
  0
TABLE
  2
VPORT
  5
8
330
0
100
AcDbSymbolTable
 70
1
  0
VPORT
  5
23
330
8
100
AcDbSymbolTableRecord
100
AcDbViewportTableRecord
  2
*Active
 70
0
 10
0.0
 20
0.0
 11
1.0
 21
1.0
 12
0.0
 22
0.0
 13
0.0
 23
0.0
 14
0.5
 24
0.5
 15
0.5
 25
0.5
 16
0.0
 26
0.0
 36
1.0
 17
0.0
 27
0.0
 37
0.0
 40
1000.0
 41
1.34
 42
50.0
 43
0.0
 44
0.0
 50
0.0
 51
0.0
 71
0
 72
1000
 73
1
 74
3
 75
0
 76
0
 77
0
 78
0
281
0
 65
0
146
0.0
  0
ENDTAB
  0
TABLE
  2
LTYPE
  5
2
330
0
100
AcDbSymbolTable
 70
3
  0
LTYPE
  5
24
330
2
100
AcDbSymbolTableRecord
100
AcDbLinetypeTableRecord
  2
ByBlock
 70
0
  3

 72
65
 73
0
 40
0.0
  0
LTYPE
  5
25
330
2
100
AcDbSymbolTableRecord
100
AcDbLinetypeTableRecord
  2
ByLayer
 70
0
  3

 72
65
 73
0
 40
0.0
  0
LTYPE
  5
26
330
2
100
AcDbSymbolTableRecord
100
AcDbLinetypeTableRecord
  2
Continuous
 70
0
  3

 72
65
 73
0
 40
0.0
  0
ENDTAB
  0
TABLE
  2
LAYER
  5
1
330
0
100
AcDbSymbolTable
 70
5
  0
LAYER
  5
27
330
1
100
AcDbSymbolTableRecord
100
AcDbLayerTableRecord
  2
0
 70
0
 62
7
  6
Continuous
370
-3
390
13
  0
LAYER
  5
28
330
1
100
AcDbSymbolTableRecord
100
AcDbLayerTableRecord
  2
Defpoints
 70
0
 62
7
  6
Continuous
290
0
370
-3
390
13
  0
LAYER
  5
2F
330
1
100
AcDbSymbolTableRecord
100
AcDbLayerTableRecord
  2
STACK
 70
0
 62
4
420
10932989
  6
Continuous
370
-3
390
13
  0
LAYER
  5
30
330
1
100
AcDbSymbolTableRecord
100
AcDbLayerTableRecord
  2
OPEN_ORANGE
 70
0
 62
30
420
16739584
  6
Continuous
370
-3
390
13
  0
LAYER
  5
31
330
1
100
AcDbSymbolTableRecord
100
AcDbLayerTableRecord
  2
VAT_BLUE
 70
0
 62
5
420
147082
  6
Continuous
370
-3
390
13
  0
ENDTAB
  0
TABLE
  2
STYLE
  5
5
330
0
100
AcDbSymbolTable
 70
1
  0
STYLE
  5
29
330
5
100
AcDbSymbolTableRecord
100
AcDbTextStyleTableRecord
  2
Standard
 70
0
 40
0.0
 41
1.0
 50
0.0
 71
0
 42
2.5
  3
txt
  4

  0
ENDTAB
  0
TABLE
  2
VIEW
  5
7
330
0
100
AcDbSymbolTable
 70
0
  0
ENDTAB
  0
TABLE
  2
UCS
  5
6
330
0
100
AcDbSymbolTable
 70
0
  0
ENDTAB
  0
TABLE
  2
APPID
  5
3
330
0
100
AcDbSymbolTable
 70
3
  0
APPID
  5
2A
330
3
100
AcDbSymbolTableRecord
100
AcDbRegAppTableRecord
  2
ACAD
 70
0
  0
APPID
  5
4E
330
3
100
AcDbSymbolTableRecord
100
AcDbRegAppTableRecord
  2
HATCHBACKGROUNDCOLOR
 70
0
  0
APPID
  5
4F
330
3
100
AcDbSymbolTableRecord
100
AcDbRegAppTableRecord
  2
EZDXF
 70
0
  0
ENDTAB
  0
TABLE
  2
DIMSTYLE
  5
4
330
0
100
AcDbSymbolTable
 70
1
100
AcDbDimStyleTable
  0
DIMSTYLE
105
2B
330
4
100
AcDbSymbolTableRecord
100
AcDbDimStyleTableRecord
  2
Standard
 70
0
  3

  4

 40
1.0
 41
2.5
 42
0.625
 43
3.75
 44
1.25
 45
0.0
 46
0.0
 47
0.0
 48
0.0
140
2.5
141
2.5
142
0.0
143
0.03937007874
144
1.0
145
0.0
146
1.0
147
0.625
148
0.0
 71
0
 72
0
 73
0
 74
0
 75
0
 76
0
 77
1
 78
8
 79
3
170
0
171
3
172
1
173
0
174
0
175
0
176
0
177
0
178
0
179
2
271
2
272
2
273
2
274
3
275
0
276
0
277
2
278
44
279
0
280
0
281
0
282
0
283
0
284
8
285
0
286
0
288
0
289
3
371
-2
372
-2
  0
ENDTAB
  0
TABLE
  2
BLOCK_RECORD
  5
9
330
0
100
AcDbSymbolTable
 70
2
  0
BLOCK_RECORD
  5
17
330
9
100
AcDbSymbolTableRecord
100
AcDbBlockTableRecord
  2
*Model_Space
340
1A
  0
BLOCK_RECORD
  5
1B
330
9
100
AcDbSymbolTableRecord
100
AcDbBlockTableRecord
  2
*Paper_Space
340
1E
  0
ENDTAB
  0
ENDSEC
  0
SECTION
  2
BLOCKS
  0
BLOCK
  5
18
330
17
100
AcDbEntity
  8
0
100
AcDbBlockBegin
  2
*Model_Space
 70
0
 10
0.0
 20
0.0
 30
0.0
  3
*Model_Space
  1

  0
ENDBLK
  5
19
330
17
100
AcDbEntity
  8
0
100
AcDbBlockEnd
  0
BLOCK
  5
1C
330
1B
100
AcDbEntity
  8
0
100
AcDbBlockBegin
  2
*Paper_Space
 70
0
 10
0.0
 20
0.0
 30
0.0
  3
*Paper_Space
  1

  0
ENDBLK
  5
1D
330
1B
100
AcDbEntity
  8
0
100
AcDbBlockEnd
  0
ENDSEC
  0
SECTION
  2
ENTITIES
  0
LWPOLYLINE
  5
32
330
17
100
AcDbEntity
  8
STACK
100
AcDbPolyline
 90
10
 70
1
 10
-85.6067833719755
 20
-53.625
 42
0.42881296819620013
 10
-81.30344251536314
 20
-70.47007219139664
 10
-5.86324042718212
 20
-112.71658536077801
 42
0.26093554027062904
 10
5.863240427182119
 20
-112.71658536077801
 10
81.30344251536314
 20
-70.47007219139664
 42
0.4288129681962002
 10
85.6067833719755
 20
-53.625
 42
-0.032651042073056205
 10
83.74645936002236
 20
-54.83260227114524
 10
8.306257271841336
 20
-97.0791154405266
 42
-0.26093554027062904
 10
-8.306257271841332
 20
-97.0791154405266
 10
-83.74645936002237
 20
-54.832602271145234
 42
-0.0326510420730562
  0
HATCH
  5
33
330
17
100
AcDbEntity
  8
STACK
100
AcDbHatch
 10
0.0
 20
0.0
 30
0.0
210
0.0
220
0.0
230
1.0
  2
SOLID
 70
1
 71
0
 91
1
 92
3
 72
1
 73
1
 93
10
 10
-85.6067833719755
 20
-53.625
 42
0.42881296819620013
 10
-81.30344251536314
 20
-70.47007219139664
 42
0.0
 10
-5.86324042718212
 20
-112.71658536077801
 42
0.26093554027062904
 10
5.863240427182119
 20
-112.71658536077801
 42
0.0
 10
81.30344251536314
 20
-70.47007219139664
 42
0.4288129681962002
 10
85.6067833719755
 20
-53.625
 42
-0.032651042073056205
 10
83.74645936002236
 20
-54.83260227114524
 42
0.0
 10
8.306257271841336
 20
-97.0791154405266
 42
-0.26093554027062904
 10
-8.306257271841332
 20
-97.0791154405266
 42
0.0
 10
-83.74645936002237
 20
-54.832602271145234
 42
-0.0326510420730562
 97
0
 75
0
 76
1
 98
0
  0
LWPOLYLINE
  5
34
330
17
100
AcDbEntity
  8
STACK
100
AcDbPolyline
 90
10
 70
1
 10
-85.6067833719755
 20
-33.625
 42
0.42881296819620013
 10
-81.30344251536314
 20
-50.47007219139664
 10
-5.86324042718212
 20
-92.71658536077801
 42
0.26093554027062904
 10
5.863240427182119
 20
-92.71658536077801
 10
81.30344251536314
 20
-50.47007219139664
 42
0.4288129681962002
 10
85.6067833719755
 20
-33.625
 42
-0.032651042073056205
 10
83.74645936002236
 20
-34.83260227114524
 10
8.306257271841336
 20
-77.0791154405266
 42
-0.26093554027062904
 10
-8.306257271841332
 20
-77.0791154405266
 10
-83.74645936002237
 20
-34.832602271145234
 42
-0.0326510420730562
  0
HATCH
  5
35
330
17
100
AcDbEntity
  8
STACK
100
AcDbHatch
 10
0.0
 20
0.0
 30
0.0
210
0.0
220
0.0
230
1.0
  2
SOLID
 70
1
 71
0
 91
1
 92
3
 72
1
 73
1
 93
10
 10
-85.6067833719755
 20
-33.625
 42
0.42881296819620013
 10
-81.30344251536314
 20
-50.47007219139664
 42
0.0
 10
-5.86324042718212
 20
-92.71658536077801
 42
0.26093554027062904
 10
5.863240427182119
 20
-92.71658536077801
 42
0.0
 10
81.30344251536314
 20
-50.47007219139664
 42
0.4288129681962002
 10
85.6067833719755
 20
-33.625
 42
-0.032651042073056205
 10
83.74645936002236
 20
-34.83260227114524
 42
0.0
 10
8.306257271841336
 20
-77.0791154405266
 42
-0.26093554027062904
 10
-8.306257271841332
 20
-77.0791154405266
 42
0.0
 10
-83.74645936002237
 20
-34.832602271145234
 42
-0.0326510420730562
 97
0
 75
0
 76
1
 98
0
  0
LWPOLYLINE
  5
36
330
17
100
AcDbEntity
  8
STACK
100
AcDbPolyline
 90
10
 70
1
 10
-85.6067833719755
 20
-13.625000000000002
 42
0.42881296819620013
 10
-81.30344251536314
 20
-30.47007219139664
 10
-5.86324042718212
 20
-72.71658536077801
 42
0.26093554027062904
 10
5.863240427182119
 20
-72.71658536077801
 10
81.30344251536314
 20
-30.47007219139664
 42
0.4288129681962002
 10
85.6067833719755
 20
-13.624999999999998
 42
-0.032651042073056205
 10
83.74645936002236
 20
-14.832602271145241
 10
8.306257271841336
 20
-57.079115440526614
 42
-0.26093554027062904
 10
-8.306257271841332
 20
-57.079115440526614
 10
-83.74645936002237
 20
-14.832602271145234
 42
-0.0326510420730562
  0
HATCH
  5
37
330
17
100
AcDbEntity
  8
STACK
100
AcDbHatch
 10
0.0
 20
0.0
 30
0.0
210
0.0
220
0.0
230
1.0
  2
SOLID
 70
1
 71
0
 91
1
 92
3
 72
1
 73
1
 93
10
 10
-85.6067833719755
 20
-13.625000000000002
 42
0.42881296819620013
 10
-81.30344251536314
 20
-30.47007219139664
 42
0.0
 10
-5.86324042718212
 20
-72.71658536077801
 42
0.26093554027062904
 10
5.863240427182119
 20
-72.71658536077801
 42
0.0
 10
81.30344251536314
 20
-30.47007219139664
 42
0.4288129681962002
 10
85.6067833719755
 20
-13.624999999999998
 42
-0.032651042073056205
 10
83.74645936002236
 20
-14.832602271145241
 42
0.0
 10
8.306257271841336
 20
-57.079115440526614
 42
-0.26093554027062904
 10
-8.306257271841332
 20
-57.079115440526614
 42
0.0
 10
-83.74645936002237
 20
-14.832602271145234
 42
-0.0326510420730562
 97
0
 75
0
 76
1
 98
0
  0
LWPOLYLINE
  5
38
330
17
100
AcDbEntity
  8
STACK
100
AcDbPolyline
 90
8
 70
1
 10
81.30344251536314
 20
-10.470072191396639
 42
0.5861239025515522
 10
81.30344251536314
 20
10.47007219139664
 10
5.863240427182119
 20
52.71658536077801
 42
0.26093554027062904
 10
-5.863240427182119
 20
52.71658536077801
 10
-81.30344251536314
 20
10.470072191396639
 42
0.5861239025515521
 10
-81.30344251536314
 20
-10.47007219139664
 10
-5.86324042718212
 20
-52.71658536077801
 42
0.26093554027062904
 10
5.863240427182119
 20
-52.71658536077801
  0
HATCH
  5
39
330
17
100
AcDbEntity
  8
STACK
100
AcDbHatch
 10
0.0
 20
0.0
 30
0.0
210
0.0
220
0.0
230
1.0
  2
SOLID
 70
1
 71
0
 91
1
 92
3
 72
1
 73
1
 93
8
 10
81.30344251536314
 20
-10.470072191396639
 42
0.5861239025515522
 10
81.30344251536314
 20
10.47007219139664
 42
0.0
 10
5.863240427182119
 20
52.71658536077801
 42
0.26093554027062904
 10
-5.863240427182119
 20
52.71658536077801
 42
0.0
 10
-81.30344251536314
 20
10.470072191396639
 42
0.5861239025515521
 10
-81.30344251536314
 20
-10.47007219139664
 42
0.0
 10
-5.86324042718212
 20
-52.71658536077801
 42
0.26093554027062904
 10
5.863240427182119
 20
-52.71658536077801
 42
0.0
 97
0
 75
0
 76
1
 98
0
  0
ELLIPSE
  5
3A
330
17
100
AcDbEntity
  8
OPEN_ORANGE
  6
ByLayer
100
AcDbEllipse
 10
-33.49696909470338
 20
18.75830269303389
 30
0.0
 11
9.221976708947752
 21
0.0412751899066762
 31
0.0
 40
0.5599838727064139
 41
0.0
 42
6.283185307179586
  0
HATCH
  5
3B
330
17
100
AcDbEntity
  8
OPEN_ORANGE
100
AcDbHatch
 10
0.0
 20
0.0
 30
0.0
210
0.0
220
0.0
230
1.0
  2
SOLID
 70
1
 71
0
 91
6
 92
1
 93
1
 72
3
 10
-33.49696909470338
 20
18.75830269303389
 11
9.221976708947752
 21
0.0412751899066762
 40
0.5599838727064139
 50
0
 51
360
 73
1
 97
0
 92
1
 93
1
 72
3
 10
-33.49696909470338
 20
18.75830269303389
 11
5.270040860239583
 21
0.9599760556519747
 40
0.5323226110403391
 50
0
 51
360
 73
1
 97
0
 92
1
 93
6
 72
1
 10
-27.514657656762406
 20
8.307343734472825
 11
-23.062704958759824
 21
10.80043724535427
 72
1
 10
-23.062704958759824
 20
10.80043724535427
 11
-19.982112690052677
 21
9.075305574878271
 72
3
 10
-15.868031402166359
 20
11.379191096094608
 11
5.8181895540342
 21
0.0
 40
0.5599999999999999
 50
209.24882633654693
 51
389.248826336547
 73
1
 72
1
 10
-11.753950114280045
 20
13.683076617310945
 11
-18.054258173506916
 21
17.211249130477995
 72
1
 10
-18.054258173506916
 20
17.211249130477995
 11
-30.73437344728213
 21
10.110384577163872
 72
1
 10
-30.73437344728213
 20
10.110384577163872
 11
-27.514657656762406
 21
8.307343734472825
 97
0
 92
1
 93
4
 72
1
 10
-20.757229454437056
 20
12.091503527775021
 11
-18.650501838417973
 21
10.911736062804335
 72
3
 10
-16.841896054854423
 20
11.924555301599923
 11
2.557754828101991
 21
0.0
 40
0.56
 50
209.24882633654695
 51
389.2488263365469
 73
1
 72
1
 10
-15.033290271290873
 20
12.93737454039551
 11
-17.140017887309956
 21
14.117142005366198
 72
1
 10
-17.140017887309956
 20
14.117142005366198
 11
-20.757229454437056
 21
12.091503527775021
 97
0
 92
1
 93
12
 72
1
 10
-17.895259862863963
 20
2.920480969889697
 11
-8.911855311537323
 21
-2.1102255788532247
 72
1
 10
-8.911855311537323
 20
-2.1102255788532247
 11
-6.4871310742323445
 21
-0.7523800059624364
 72
1
 10
-6.4871310742323445
 20
-0.7523800059624364
 11
-12.250819835039259
 21
2.4752857000894366
 72
1
 10
-12.250819835039259
 20
2.4752857000894366
 11
-9.229851932823223
 21
4.167027725330421
 72
1
 10
-9.229851932823223
 20
4.167027725330421
 11
-3.9829076816058944
 21
1.2287389446487147
 72
1
 10
-3.9829076816058944
 20
1.2287389446487147
 11
-1.5979330219616514
 21
2.5643247540494887
 72
1
 10
-1.5979330219616514
 20
2.5643247540494887
 11
-6.84487727317898
 21
5.502613534731195
 72
1
 10
-6.84487727317898
 20
5.502613534731195
 11
-4.380403458213266
 21
6.8827188711119955
 72
1
 10
-4.380403458213266
 20
6.8827188711119955
 11
1.184537414289963
 21
3.766351982510189
 72
1
 10
1.184537414289963
 20
3.766351982510189
 11
3.569512073934206
 21
5.101937791910965
 72
1
 10
3.569512073934206
 20
5.101937791910965
 11
-5.2151445890887445
 21
10.021345523203818
 72
1
 10
-5.2151445890887445
 20
10.021345523203818
 11
-17.895259862863963
 21
2.920480969889697
 97
0
 92
1
 93
7
 72
1
 10
-5.970386564642752
 20
-3.75744807711418
 11
-2.90966908476598
 21
-5.471449865845177
 72
1
 10
-2.90966908476598
 20
-5.471449865845177
 11
5.996602357528516
 21
-0.4839378581602567
 72
1
 10
5.996602357528516
 20
-0.4839378581602567
 11
1.7807810792010272
 21
-8.0981019576667
 72
1
 10
1.7807810792010272
 20
-8.0981019576667
 11
4.32475404948822
 21
-9.522726821027526
 72
1
 10
4.32475404948822
 20
-9.522726821027526
 11
10.326940276259563
 21
1.317777998608765
 72
1
 10
10.326940276259563
 20
1.317777998608765
 11
6.709728709132463
 21
3.343416476199943
 72
1
 10
6.709728709132463
 20
3.343416476199943
 11
-5.970386564642752
 21
-3.75744807711418
 97
0
 75
0
 76
1
 98
0
  0
ELLIPSE
  5
3C
330
17
100
AcDbEntity
  8
OPEN_ORANGE
  6
ByLayer
100
AcDbEllipse
 10
-33.49696909470338
 20
18.75830269303389
 30
0.0
 11
5.270040860239583
 21
0.9599760556519747
 31
0.0
 40
0.5323226110403391
 41
0.0
 42
6.283185307179586
  0
LINE
  5
3D
330
17
100
AcDbEntity
  8
OPEN_ORANGE
100
AcDbLine
 10
-27.514657656762406
 20
8.307343734472825
 30
0.0
 11
-23.062704958759824
 21
10.80043724535427
 31
0.0
  0
LINE
  5
3E
330
17
100
AcDbEntity
  8
OPEN_ORANGE
100
AcDbLine
 10
-23.062704958759824
 20
10.80043724535427
 30
0.0
 11
-19.982112690052677
 21
9.075305574878271
 31
0.0
  0
ELLIPSE
  5
3F
330
17
100
AcDbEntity
  8
OPEN_ORANGE
100
AcDbEllipse
 10
-15.868031402166359
 20
11.379191096094608
 30
0.0
 11
5.8181895540342
 21
0.0
 31
0.0
 40
0.5599999999999999
 41
-2.3561944901923453
 42
0.7853981633974485
  0
LINE
  5
40
330
17
100
AcDbEntity
  8
OPEN_ORANGE
100
AcDbLine
 10
-11.753950114280045
 20
13.683076617310945
 30
0.0
 11
-18.054258173506916
 21
17.211249130477995
 31
0.0
  0
LINE
  5
41
330
17
100
AcDbEntity
  8
OPEN_ORANGE
100
AcDbLine
 10
-18.054258173506916
 20
17.211249130477995
 30
0.0
 11
-30.73437344728213
 21
10.110384577163872
 31
0.0
  0
LINE
  5
42
330
17
100
AcDbEntity
  8
OPEN_ORANGE
100
AcDbLine
 10
-30.73437344728213
 20
10.110384577163872
 30
0.0
 11
-27.514657656762406
 21
8.307343734472825
 31
0.0
  0
LINE
  5
43
330
17
100
AcDbEntity
  8
OPEN_ORANGE
100
AcDbLine
 10
-20.757229454437056
 20
12.091503527775021
 30
0.0
 11
-18.650501838417973
 21
10.911736062804335
 31
0.0
  0
ELLIPSE
  5
44
330
17
100
AcDbEntity
  8
OPEN_ORANGE
100
AcDbEllipse
 10
-16.841896054854423
 20
11.924555301599923
 30
0.0
 11
2.557754828101991
 21
0.0
 31
0.0
 40
0.56
 41
-2.356194490192345
 42
0.7853981633974474
  0
LINE
  5
45
330
17
100
AcDbEntity
  8
OPEN_ORANGE
100
AcDbLine
 10
-15.033290271290873
 20
12.93737454039551
 30
0.0
 11
-17.140017887309956
 21
14.117142005366198
 31
0.0
  0
LINE
  5
46
330
17
100
AcDbEntity
  8
OPEN_ORANGE
100
AcDbLine
 10
-17.140017887309956
 20
14.117142005366198
 30
0.0
 11
-20.757229454437056
 21
12.091503527775021
 31
0.0
  0
LWPOLYLINE
  5
47
330
17
100
AcDbEntity
  8
OPEN_ORANGE
100
AcDbPolyline
 90
12
 70
1
 10
-17.895259862863963
 20
2.920480969889697
 10
-8.911855311537323
 20
-2.1102255788532247
 10
-6.4871310742323445
 20
-0.7523800059624364
 10
-12.250819835039259
 20
2.4752857000894366
 10
-9.229851932823223
 20
4.167027725330421
 10
-3.9829076816058944
 20
1.2287389446487147
 10
-1.5979330219616514
 20
2.5643247540494887
 10
-6.84487727317898
 20
5.502613534731195
 10
-4.380403458213266
 20
6.8827188711119955
 10
1.184537414289963
 20
3.766351982510189
 10
3.569512073934206
 20
5.101937791910965
 10
-5.2151445890887445
 20
10.021345523203818
  0
LWPOLYLINE
  5
48
330
17
100
AcDbEntity
  8
OPEN_ORANGE
100
AcDbPolyline
 90
7
 70
1
 10
-5.970386564642752
 20
-3.75744807711418
 10
-2.90966908476598
 20
-5.471449865845177
 10
5.996602357528516
 20
-0.4839378581602567
 10
1.7807810792010272
 20
-8.0981019576667
 10
4.32475404948822
 20
-9.522726821027526
 10
10.326940276259563
 20
1.317777998608765
 10
6.709728709132463
 20
3.343416476199943
  0
HATCH
  5
49
330
17
100
AcDbEntity
  8
VAT_BLUE
100
AcDbHatch
 10
0.0
 20
0.0
 30
0.0
210
0.0
220
0.0
230
1.0
  2
SOLID
 70
1
 71
0
 91
4
 92
1
 93
7
 72
1
 10
10.326940276259563
 20
1.317777998608765
 11
4.32475404948822
 21
-9.522726821027526
 72
1
 10
4.32475404948822
 20
-9.522726821027526
 11
8.061214349597535
 21
-11.615144589088743
 72
1
 10
8.061214349597535
 20
-11.615144589088743
 11
20.74132962337275
 21
-4.514280035774622
 72
1
 10
20.74132962337275
 20
-4.514280035774622
 11
17.680612143495978
 21
-2.800278247043625
 72
1
 10
17.680612143495978
 20
-2.800278247043625
 11
8.975454635794492
 21
-7.6751664513564535
 72
1
 10
8.975454635794492
 20
-7.6751664513564535
 11
13.096077782073237
 21
-0.23293900464689088
 72
1
 10
13.096077782073237
 20
-0.23293900464689088
 11
10.326940276259563
 21
1.317777998608765
 97
0
 92
1
 93
8
 72
1
 10
9.810195766669978
 20
-12.59457418264931
 11
13.029911557189706
 21
-14.397615025340354
 72
1
 10
13.029911557189706
 20
-14.397615025340354
 11
16.249627347709435
 21
-13.574003776209874
 72
1
 10
16.249627347709435
 20
-13.574003776209874
 11
21.297823710623078
 21
-16.400993739441514
 72
1
 10
21.297823710623078
 20
-16.400993739441514
 11
19.827089337175792
 21
-18.20403458213256
 72
1
 10
19.827089337175792
 20
-18.20403458213256
 11
23.04680512769552
 21
-20.007075424823608
 72
1
 10
23.04680512769552
 20
-20.007075424823608
 11
31.03647023750372
 21
-10.279558779687964
 72
1
 10
31.03647023750372
 20
-10.279558779687964
 11
27.180761204412207
 21
-8.120361721156716
 72
1
 10
27.180761204412207
 20
-8.120361721156716
 11
9.810195766669978
 21
-12.59457418264931
 97
0
 92
1
 93
3
 72
1
 10
19.310344827586206
 20
-12.750392527079399
 11
22.76855808407035
 21
-14.686991950710524
 72
1
 10
22.76855808407035
 20
-14.686991950710524
 11
26.206896551724142
 21
-10.824922985193282
 72
1
 10
26.206896551724142
 20
-10.824922985193282
 11
19.310344827586206
 21
-12.750392527079399
 97
0
 92
1
 93
8
 72
1
 10
34.693431382291564
 20
-12.327457020769156
 11
32.26870714498659
 21
-13.685302593659944
 72
1
 10
32.26870714498659
 20
-13.685302593659944
 11
36.48216237702475
 21
-16.044837523601313
 72
1
 10
36.48216237702475
 20
-16.044837523601313
 11
26.226771340554507
 21
-21.787856504024642
 72
1
 10
26.226771340554507
 20
-21.787856504024642
 11
29.446487131074235
 21
-23.59089734671569
 72
1
 10
29.446487131074235
 20
-23.59089734671569
 11
39.70187816754448
 21
-17.84787836629236
 72
1
 10
39.70187816754448
 20
-17.84787836629236
 11
43.915333399582636
 21
-20.207413296233728
 72
1
 10
43.915333399582636
 20
-20.207413296233728
 11
46.34005763688761
 21
-18.84956772334294
 72
1
 10
46.34005763688761
 20
-18.84956772334294
 11
34.693431382291564
 21
-12.327457020769156
 97
0
 75
0
 76
1
 98
0
  0
LWPOLYLINE
  5
4A
330
17
100
AcDbEntity
  8
VAT_BLUE
100
AcDbPolyline
 90
7
 70
1
 10
10.326940276259563
 20
1.317777998608765
 10
4.32475404948822
 20
-9.522726821027526
 10
8.061214349597535
 20
-11.615144589088743
 10
20.74132962337275
 20
-4.514280035774622
 10
17.680612143495978
 20
-2.800278247043625
 10
8.975454635794492
 20
-7.6751664513564535
 10
13.096077782073237
 20
-0.23293900464689088
  0
LWPOLYLINE
  5
4B
330
17
100
AcDbEntity
  8
VAT_BLUE
100
AcDbPolyline
 90
8
 70
1
 10
9.810195766669978
 20
-12.59457418264931
 10
13.029911557189706
 20
-14.397615025340354
 10
16.249627347709435
 20
-13.574003776209874
 10
21.297823710623078
 20
-16.400993739441514
 10
19.827089337175792
 20
-18.20403458213256
 10
23.04680512769552
 20
-20.007075424823608
 10
31.03647023750372
 20
-10.279558779687964
 10
27.180761204412207
 20
-8.120361721156716
  0
LWPOLYLINE
  5
4C
330
17
100
AcDbEntity
  8
VAT_BLUE
100
AcDbPolyline
 90
3
 70
1
 10
19.310344827586206
 20
-12.750392527079399
 10
22.76855808407035
 20
-14.686991950710524
 10
26.206896551724142
 20
-10.824922985193282
  0
LWPOLYLINE
  5
4D
330
17
100
AcDbEntity
  8
VAT_BLUE
100
AcDbPolyline
 90
8
 70
1
 10
34.693431382291564
 20
-12.327457020769156
 10
32.26870714498659
 20
-13.685302593659944
 10
36.48216237702475
 20
-16.044837523601313
 10
26.226771340554507
 20
-21.787856504024642
 10
29.446487131074235
 20
-23.59089734671569
 10
39.70187816754448
 20
-17.84787836629236
 10
43.915333399582636
 20
-20.207413296233728
 10
46.34005763688761
 20
-18.84956772334294
  0
ENDSEC
  0
SECTION
  2
OBJECTS
  0
DICTIONARY
  5
A
330
0
100
AcDbDictionary
281
1
  3
ACAD_COLOR
350
B
  3
ACAD_GROUP
350
C
  3
ACAD_LAYOUT
350
D
  3
ACAD_MATERIAL
350
E
  3
ACAD_MLEADERSTYLE
350
F
  3
ACAD_MLINESTYLE
350
10
  3
ACAD_PLOTSETTINGS
350
11
  3
ACAD_PLOTSTYLENAME
350
12
  3
ACAD_SCALELIST
350
14
  3
ACAD_TABLESTYLE
350
15
  3
ACAD_VISUALSTYLE
350
16
  3
EZDXF_META
350
2D
  0
DICTIONARY
  5
B
330
A
100
AcDbDictionary
281
1
  0
DICTIONARY
  5
C
330
A
100
AcDbDictionary
281
1
  0
DICTIONARY
  5
D
330
A
100
AcDbDictionary
281
1
  3
Model
350
1A
  3
Layout1
350
1E
  0
DICTIONARY
  5
E
330
A
100
AcDbDictionary
281
1
  3
ByBlock
350
1F
  3
ByLayer
350
20
  3
Global
350
21
  0
DICTIONARY
  5
F
330
A
100
AcDbDictionary
281
1
  3
Standard
350
2C
  0
DICTIONARY
  5
10
330
A
100
AcDbDictionary
281
1
  3
Standard
350
22
  0
DICTIONARY
  5
11
330
A
100
AcDbDictionary
281
1
  0
ACDBDICTIONARYWDFLT
  5
12
330
A
100
AcDbDictionary
281
1
  3
Normal
350
13
100
AcDbDictionaryWithDefault
340
13
  0
ACDBPLACEHOLDER
  5
13
330
12
  0
DICTIONARY
  5
14
330
A
100
AcDbDictionary
281
1
  0
DICTIONARY
  5
15
330
A
100
AcDbDictionary
281
1
  0
DICTIONARY
  5
16
330
A
100
AcDbDictionary
281
1
  0
LAYOUT
  5
1A
330
D
100
AcDbPlotSettings
  1

  4
A3
  6

 40
7.5
 41
20.0
 42
7.5
 43
20.0
 44
420.0
 45
297.0
 46
0.0
 47
0.0
 48
0.0
 49
0.0
140
0.0
141
0.0
142
1.0
143
1.0
 70
1024
 72
1
 73
0
 74
5
  7

 75
16
 76
0
 77
2
 78
300
147
1.0
148
0.0
149
0.0
100
AcDbLayout
  1
Model
 70
1
 71
0
 10
0.0
 20
0.0
 11
420.0
 21
297.0
 12
0.0
 22
0.0
 32
0.0
 14
1e+20
 24
1e+20
 34
1e+20
 15
-1e+20
 25
-1e+20
 35
-1e+20
146
0.0
 13
0.0
 23
0.0
 33
0.0
 16
1.0
 26
0.0
 36
0.0
 17
0.0
 27
1.0
 37
0.0
 76
1
330
17
  0
LAYOUT
  5
1E
330
D
100
AcDbPlotSettings
  1

  4
A3
  6

 40
7.5
 41
20.0
 42
7.5
 43
20.0
 44
420.0
 45
297.0
 46
0.0
 47
0.0
 48
0.0
 49
0.0
140
0.0
141
0.0
142
1.0
143
1.0
 70
0
 72
1
 73
0
 74
5
  7

 75
16
 76
0
 77
2
 78
300
147
1.0
148
0.0
149
0.0
100
AcDbLayout
  1
Layout1
 70
1
 71
1
 10
0.0
 20
0.0
 11
420.0
 21
297.0
 12
0.0
 22
0.0
 32
0.0
 14
1e+20
 24
1e+20
 34
1e+20
 15
-1e+20
 25
-1e+20
 35
-1e+20
146
0.0
 13
0.0
 23
0.0
 33
0.0
 16
1.0
 26
0.0
 36
0.0
 17
0.0
 27
1.0
 37
0.0
 76
1
330
1B
  0
MATERIAL
  5
1F
102
{ACAD_REACTORS
330
E
102
}
330
E
100
AcDbMaterial
  1
ByBlock
  2

 70
0
 40
1.0
 71
1
 41
1.0
 91
-1023410177
 42
1.0
 72
1
  3

 73
1
 74
1
 75
1
 44
0.5
 73
0
 45
1.0
 46
1.0
 77
1
  4

 78
1
 79
1
170
1
 48
1.0
171
1
  6

172
1
173
1
174
1
140
1.0
141
1.0
175
1
  7

176
1
177
1
178
1
143
1.0
179
1
  8

270
1
271
1
272
1
145
1.0
146
1.0
273
1
  9

274
1
275
1
276
1
 42
1.0
 72
1
  3

 73
1
 74
1
 75
1
 94
63
  0
MATERIAL
  5
20
102
{ACAD_REACTORS
330
E
102
}
330
E
100
AcDbMaterial
  1
ByLayer
  2

 70
0
 40
1.0
 71
1
 41
1.0
 91
-1023410177
 42
1.0
 72
1
  3

 73
1
 74
1
 75
1
 44
0.5
 73
0
 45
1.0
 46
1.0
 77
1
  4

 78
1
 79
1
170
1
 48
1.0
171
1
  6

172
1
173
1
174
1
140
1.0
141
1.0
175
1
  7

176
1
177
1
178
1
143
1.0
179
1
  8

270
1
271
1
272
1
145
1.0
146
1.0
273
1
  9

274
1
275
1
276
1
 42
1.0
 72
1
  3

 73
1
 74
1
 75
1
 94
63
  0
MATERIAL
  5
21
102
{ACAD_REACTORS
330
E
102
}
330
E
100
AcDbMaterial
  1
Global
  2

 70
0
 40
1.0
 71
1
 41
1.0
 91
-1023410177
 42
1.0
 72
1
  3

 73
1
 74
1
 75
1
 44
0.5
 73
0
 45
1.0
 46
1.0
 77
1
  4

 78
1
 79
1
170
1
 48
1.0
171
1
  6

172
1
173
1
174
1
140
1.0
141
1.0
175
1
  7

176
1
177
1
178
1
143
1.0
179
1
  8

270
1
271
1
272
1
145
1.0
146
1.0
273
1
  9

274
1
275
1
276
1
 42
1.0
 72
1
  3

 73
1
 74
1
 75
1
 94
63
  0
MLINESTYLE
  5
22
102
{ACAD_REACTORS
330
10
102
}
330
10
100
AcDbMlineStyle
  2
Standard
 70
0
  3

 62
256
 51
90.0
 52
90.0
 71
2
 49
0.5
 62
256
  6
BYLAYER
 49
-0.5
 62
256
  6
BYLAYER
  0
MLEADERSTYLE
  5
2C
102
{ACAD_REACTORS
330
F
102
}
330
F
100
AcDbMLeaderStyle
179
2
170
2
171
1
172
0
 90
2
 40
0.0
 41
0.0
173
1
 91
-1056964608
 92
-2
290
1
 42
2.0
291
1
 43
8.0
  3
Standard
 44
4.0
300

342
29
174
1
175
1
176
0
178
1
 93
-1056964608
 45
4.0
292
0
297
0
 46
4.0
 94
-1056964608
 47
1.0
 49
1.0
140
1.0
294
1
141
0.0
177
0
142
1.0
295
0
296
0
143
3.75
271
0
272
9
273
9
  0
DICTIONARY
  5
2D
330
A
100
AcDbDictionary
280
1
281
1
  3
CREATED_BY_EZDXF
350
2E
  3
WRITTEN_BY_EZDXF
350
50
  0
DICTIONARYVAR
  5
2E
330
2D
100
DictionaryVariables
280
0
  1
1.4.4 @ 2026-10-08T22:21:10.965720+00:00
  0
DICTIONARYVAR
  5
50
330
2D
100
DictionaryVariables
280
0
  1
1.4.4 @ 2026-10-08T22:21:10.990616+00:00
  0
ENDSEC
  0
EOF
